<svg xmlns="http://www.w3.org/2000/svg" width="256" height="256" viewBox="0 0 100 100"><rect width="100" height="100" rx="20"/><path fill="#fff" d="M43.3 59.47H18.52q.17 4.27 1.64 6.98 1.47 2.71 3.89 3.99 2.41 1.28 5.25 1.28 2.83 0 5.13-.84 2.29-.84 4.7-2.49l2.77 3.89q-2.59 2.03-5.9 3.18-3.31 1.16-6.77 1.16-5.36 0-9.14-2.42-3.78-2.41-5.75-6.73-1.98-4.33-1.98-10.03 0-5.6 1.99-9.94 2-4.34 5.6-6.83 3.61-2.48 8.51-2.48 4.65 0 8.01 2.19 3.36 2.18 5.17 6.22 1.8 4.05 1.8 9.65 0 .94-.04 1.77-.03.82-.1 1.45ZM28.53 43.02q-4.1 0-6.84 2.9-2.75 2.91-3.14 9h19.22q-.11-5.92-2.59-8.91-2.49-2.99-6.65-2.99Zm49.14-19.64q2.97 0 5.39.53 2.41.52 4.58 1.47l-1.89 4.37q-1.78-.77-3.78-1.15-1.99-.39-4.13-.39-3.85 0-5.79 1.51-1.94 1.5-1.94 4.62v7.49H82.6l-.63 4.62H70.11v29.36h-5.88V46.45h-8.79v-4.62h8.79v-7.35q0-3.43 1.77-5.92 1.76-2.48 4.81-3.83 3.04-1.35 6.86-1.35Z"/></svg>